<mxfile host="app.diagrams.net" modified="2023-03-06T02:19:30.970Z" agent="5.0 (Macintosh; Intel Mac OS X 10_15_7) AppleWebKit/537.36 (KHTML, like Gecko) Chrome/110.0.0.0 Safari/537.36" etag="Mbt8RxAA1HvudQQbECrF" version="21.0.2" type="github">
  <diagram name="Page-1" id="EjiibVULLcjjSqS-XPqa">
    <mxGraphModel dx="473" dy="753" grid="0" gridSize="10" guides="1" tooltips="1" connect="1" arrows="1" fold="1" page="1" pageScale="1" pageWidth="850" pageHeight="1100" background="none" math="0" shadow="0">
      <root>
        <mxCell id="0" />
        <mxCell id="1" parent="0" />
        <mxCell id="LXnMn0qV-JXy5LM8WRBn-1" value="&lt;b&gt;&lt;font color=&quot;#97d077&quot;&gt;UIViewController&lt;/font&gt;&lt;/b&gt;" style="rounded=0;whiteSpace=wrap;html=1;strokeWidth=4;fillColor=none;strokeColor=#82b366;" vertex="1" parent="1">
          <mxGeometry x="189" y="578" width="120" height="60" as="geometry" />
        </mxCell>
        <mxCell id="LXnMn0qV-JXy5LM8WRBn-2" value="&lt;font color=&quot;#a680b8&quot;&gt;FeedViewController&lt;/font&gt;" style="rounded=0;whiteSpace=wrap;html=1;fillColor=none;strokeColor=#9673a6;strokeWidth=4;" vertex="1" parent="1">
          <mxGeometry x="185" y="469" width="120" height="60" as="geometry" />
        </mxCell>
        <mxCell id="LXnMn0qV-JXy5LM8WRBn-3" value="" style="endArrow=none;html=1;rounded=0;" edge="1" parent="1" source="LXnMn0qV-JXy5LM8WRBn-2">
          <mxGeometry width="50" height="50" relative="1" as="geometry">
            <mxPoint x="224" y="633" as="sourcePoint" />
            <mxPoint x="245" y="559" as="targetPoint" />
          </mxGeometry>
        </mxCell>
      </root>
    </mxGraphModel>
  </diagram>
</mxfile>
